<svg width="70" height="70" viewBox="0 0 70 70" fill="none" xmlns="http://www.w3.org/2000/svg">
<circle cx="35" cy="35" r="35" fill="#00C950"/>
<path d="M49.291 20.939C49.148 20.395 48.66 20 48.08 20C47.685 20 47.332 20.184 47.103 20.47L47.101 20.472C45.462 22.403 43.315 23.856 40.866 24.63L40.77 24.656C39.11 25.196 37.178 25.581 35.182 25.735L35.096 25.74C32.8 25.834 30.648 26.349 28.682 27.208L28.796 27.163C25.33 29.039 23.016 32.648 23.016 36.796C23.016 36.86 23.017 36.923 23.018 36.986V36.976C23.028 37.294 23.049 37.607 23.086 37.921C23.23 39.07 23.529 40.114 23.963 41.084L23.935 41.014C22.463 42.961 21.177 45.18 20.177 47.55L20.101 47.754C20.037 47.899 20 48.068 20 48.246C20 48.758 20.309 49.199 20.75 49.392L20.758 49.395C20.902 49.459 21.069 49.497 21.245 49.497H21.249H21.25C21.762 49.497 22.203 49.189 22.396 48.747L22.399 48.739C23.262 46.686 24.232 44.926 25.359 43.284L25.293 43.386C26.442 44.935 27.935 46.166 29.663 46.979L29.733 47.009C31.215 47.687 32.949 48.081 34.774 48.081C34.8 48.081 34.826 48.081 34.851 48.081H34.847C36.804 48.073 38.667 47.675 40.364 46.962L40.269 46.997C45.693 44.545 49.55 39.48 50.252 33.451L50.26 33.372C50.411 32.219 50.497 30.886 50.497 29.533C50.497 26.472 50.056 23.513 49.233 20.718L49.289 20.938L49.291 20.939ZM47.789 33.001C47.211 38.221 43.941 42.561 39.416 44.643L39.326 44.68C38.046 45.241 36.554 45.568 34.986 45.568C33.464 45.568 32.014 45.26 30.694 44.704L30.767 44.731C29.163 43.973 27.857 42.81 26.945 41.373L26.923 41.336C30.277 37.841 34.937 35.621 40.116 35.464L40.145 35.463C40.781 35.399 41.274 34.867 41.274 34.219C41.274 33.529 40.714 32.969 40.024 32.969C39.981 32.969 39.939 32.971 39.898 32.975H39.903C34.431 33.201 29.512 35.403 25.806 38.881L25.818 38.87C25.716 38.523 25.63 38.104 25.576 37.674L25.572 37.632C25.545 37.392 25.527 37.15 25.521 36.909C25.52 36.861 25.519 36.804 25.519 36.747C25.519 33.587 27.276 30.838 29.867 29.422L29.911 29.4C31.511 28.721 33.367 28.296 35.313 28.226L35.34 28.225C37.628 28.048 39.749 27.621 41.769 26.967L41.574 27.022C43.812 26.282 45.745 25.174 47.404 23.755L47.381 23.775C47.785 25.51 48.016 27.502 48.016 29.548C48.016 30.764 47.934 31.962 47.776 33.135L47.791 32.998L47.789 33.001Z" fill="white" stroke="white"/>
</svg>
